<svg xmlns="http://www.w3.org/2000/svg" viewBox="0 0 160 160" width="100%" height="100%">
  <defs>
    <linearGradient id="bgGrad" x1="0%" y1="0%" x2="100%" y2="100%">
      <stop offset="0%" stop-color="#FF9B89" />
      <stop offset="100%" stop-color="#F6B381" />
    </linearGradient>
    <filter id="shadow">
      <feDropShadow dx="0" dy="2" stdDeviation="3" flood-color="#000" flood-opacity="0.1"/>
    </filter>
    <filter id="textShadow">
      <feDropShadow dx="1" dy="1" stdDeviation="1" flood-color="#000" flood-opacity="0.1"/>
    </filter>
  </defs>

  <rect width="160" height="160" fill="transparent" />

  <circle cx="80" cy="80" r="76" fill="url(#bgGrad)" stroke="#ffffff" stroke-width="3" filter="url(#shadow)" />

  <path id="topCurve" d="M 23,80 A 57,57 0 0,1 137,80" fill="transparent" />
  <path id="bottomCurve" d="M 18,80 A 62,62 0 0,0 142,80" fill="transparent" />

  <text fill="#ffffff" font-size="11.5" font-weight="700" letter-spacing="1.5" font-family="ui-sans-serif, system-ui, sans-serif">
    <textPath href="#topCurve" startOffset="50%" text-anchor="middle">
      you are always
    </textPath>
  </text>
  <text fill="#ffffff" font-size="9" font-weight="700" letter-spacing="2" opacity="0.9" font-family="ui-sans-serif, system-ui, sans-serif">
    <textPath href="#bottomCurve" startOffset="50%" text-anchor="middle">
      in every way
    </textPath>
  </text>

  <text x="80" y="70" fill="#ffffff" font-size="34" font-family="Brush Script MT, cursive" text-anchor="middle" filter="url(#textShadow)">My</text>
  <text x="80" y="102" fill="#ffffff" font-size="38" font-family="Brush Script MT, cursive" text-anchor="middle" filter="url(#textShadow)">Favorite</text>

  <svg x="74" y="112" width="12" height="12" viewBox="0 0 24 24" fill="#ffffff" filter="url(#textShadow)">
    <path d="M12 21.35l-1.45-1.32C5.4 15.36 2 12.28 2 8.5 2 5.42 4.42 3 7.5 3c1.74 0 3.41.81 4.5 2.09C13.09 3.81 14.76 3 16.5 3 19.58 3 22 5.42 22 8.5c0 3.78-3.4 6.86-8.55 11.54L12 21.35z"/>
  </svg>
</svg>
